PathFileType	4	(x/y/z)	A01_FAST_T0022.trc
DataRate	CameraRate	NumFrames	NumMarkers	Units	OrigDataRate	OrigDataStartFrame	OrigNumFrames
240	240	6	48	mm	240	187	299
Frame#	Time	TOP_HEAD			R_AC			L_AC			R_ASIS			L_ASIS			R_PSIS			L_PSIS			SACRAL			L_IC			R_IC			L_GT			R_GT			R_LAT_KNEE			R_MED_KNEE			L_MED_KNEE			L_LAT_KNEE			R_TOE			L_TOE			R_1ST_MET			L_1ST_MET			L_5TH_MET			R_5TH_MET			R_LAT_ANK			R_MED_ANK			L_MED_ANK			L_LAT_ANK			L_HEEL_SUP			R_HEEL_SUP			L_HEEL_LAT			R_HEEL_LAT			L_HEEL_MED			R_HEEL_MED			R_LL_PROX_POST			R_LL_PROX_ANT			R_LL_DIST_ANT			R_LL_DIST_POST			R_THIGH_PROX_POST			R_THIGH_PROX_ANT			R_THIGH_DIST_ANT			R_THIGH_DIST_POST			L_PROS_PROX_ANT			L_PROS_PROX_POST			L_PROS_DIST_POST			L_PROS_DIST_ANT			L_THIGH_PROX_ANT			L_THIGH_PROX_POST			L_THIGH_DIST_POST			L_THIGH_DIST_ANT			
		X1	Y1	Z1	X2	Y2	Z2	X3	Y3	Z3	X4	Y4	Z4	X5	Y5	Z5	X6	Y6	Z6	X7	Y7	Z7	X8	Y8	Z8	X9	Y9	Z9	X10	Y10	Z10	X11	Y11	Z11	X12	Y12	Z12	X13	Y13	Z13	X14	Y14	Z14	X15	Y15	Z15	X16	Y16	Z16	X17	Y17	Z17	X18	Y18	Z18	X19	Y19	Z19	X20	Y20	Z20	X21	Y21	Z21	X22	Y22	Z22	X23	Y23	Z23	X24	Y24	Z24	X25	Y25	Z25	X26	Y26	Z26	X27	Y27	Z27	X28	Y28	Z28	X29	Y29	Z29	X30	Y30	Z30	X31	Y31	Z31	X32	Y32	Z32	X33	Y33	Z33	X34	Y34	Z34	X35	Y35	Z35	X36	Y36	Z36	X37	Y37	Z37	X38	Y38	Z38	X39	Y39	Z39	X40	Y40	Z40	X41	Y41	Z41	X42	Y42	Z42	X43	Y43	Z43	X44	Y44	Z44	X45	Y45	Z45	X46	Y46	Z46	X47	Y47	Z47	X48	Y48	Z48	

187	0.7776	559.3	1725.1	303.04	342.15	1511.9	556.73	321.61	1526	97.47	324.4	1066.7	524.54	307.09	991.14	174.96	100.88	1055.2	413.57	105.1	1055	279.73	87.536	1025	347.07	285.13	1118.1	135.26	292.26	1152.5	541.04	239.8	912.15	137.03	280.46	952.03	568.36	409.68	563.23	482.01	433.16	576.63	352.46	293.22	479.59	316.68	260	530.42	170.66	624.3	71.306	356.15	-65.897	98.449	199.92	538.06	56.017	312.96	-120.01	140.58	274.62	-160.64	188.44	161.19	516.04	45.364	449.99	396.94	104.37	427.96	397.81	112.99	325.41	-110.41	293.2	289.48	-144.22	325.38	231.16	-218.52	362.76	296.99	294.87	70.243	375.23	-245.6	349.5	265.92	304.31	46.541	409.62	-231.75	327.32	325.02	305.29	44.279	348.92	330.46	382.44	480.44	402.32	376.2	492.66	407.39	303.64	470.6	351.22	303.07	464.28	290.99	800.09	542.82	348.31	839.5	550.23	380.63	755.55	534.6	323.88	718.77	525.35	216.48	446.16	175.38	185.76	493.18	177.53	131.14	463.11	190.4	166.25	421.55	185.53	304.89	768.91	162.89	234.48	774.04	149.57	247.42	698.65	155.97	311.32	695.17	167.45
188	0.78178	566.12	1725.9	302.73	348.81	1513.5	556.52	327.56	1526.8	97.162	330.73	1067.4	525.28	313.51	992.93	175.33	107.17	1056.4	414.19	111.25	1056.2	280.42	93.82	1026.2	347.66	290.86	1119.3	135.44	298.7	1154	541.3	246.61	913.84	137.31	286.41	952.62	568.74	413.28	563.25	482.3	436.93	576.49	352.72	305.66	480.65	315.99	271.71	533.12	170.58	624.45	71.076	356.13	-53.682	100.88	196.16	538.12	56.081	312.92	-107.33	141.99	271.8	-148.76	191.3	159.14	516.05	45.415	450.01	397.28	104.55	427.96	398.08	113.18	325.41	-97.972	294.39	288.43	-132.04	327.22	230.7	-205.97	363.89	297.5	295.05	70.59	375.25	-233.23	350.97	266.42	304.42	46.847	409.63	-219	328.13	325.21	305.25	44.687	348.81	332.68	383.04	480.64	404.53	376.31	492.83	409.05	303.71	470.68	352.89	303.52	464.37	295.86	800.79	543.05	353.43	839.77	550.68	385.25	755.6	535.1	328.23	719.25	525.63	228.28	448.78	174.58	197.54	495.79	177.42	143.02	465.57	190.16	178.11	424.03	184.71	313.76	771.08	163.03	243.3	775.46	149.65	257.07	700.22	155.93	321.01	697.41	167.43
189	0.78596	572.93	1726.6	302.41	355.44	1515.1	556.3	333.48	1527.7	96.851	337.08	1068.1	525.95	319.9	994.75	175.68	113.45	1057.7	414.8	117.39	1057.5	281.11	100.09	1027.5	348.24	296.58	1120.5	135.63	305.16	1155.5	541.55	253.39	915.57	137.58	292.36	953.29	569.09	416.72	563.28	482.59	440.53	576.34	352.98	317.98	481.9	315.32	283.35	535.86	170.49	624.59	70.857	356.11	-41.114	103.08	192.56	538.18	56.137	312.89	-94.379	143.15	269.05	-136.59	193.76	157.12	516.07	45.456	450.03	397.6	104.73	427.97	398.35	113.39	325.43	-85.43	295.35	287.33	-119.75	328.74	230.16	-193.41	364.64	297.87	295.23	70.95	375.28	-220.81	352	266.74	304.53	47.168	409.63	-206.21	328.57	325.25	305.2	45.112	348.7	334.79	383.64	480.83	406.61	376.42	493.02	410.62	303.79	470.77	354.47	303.99	464.47	300.65	801.55	543.28	358.49	840.09	551.09	389.79	755.69	535.58	332.5	719.79	525.91	240.08	451.41	173.81	209.27	498.37	177.29	154.88	467.95	189.9	190.01	426.47	183.91	322.61	773.32	163.16	252.11	776.96	149.71	266.71	701.87	155.86	330.69	699.73	167.39
190	0.79014	579.71	1727.4	302.07	362.04	1516.9	556.09	339.37	1528.6	96.538	343.45	1068.9	526.56	326.25	996.59	175.99	119.72	1059	415.39	123.5	1058.9	281.79	106.34	1028.9	348.8	302.28	1121.8	135.82	311.64	1157.1	541.78	260.12	917.33	137.83	298.3	954.04	569.4	419.99	563.34	482.88	443.98	576.19	353.26	330.16	483.35	314.68	294.91	538.64	170.39	624.73	70.648	356.09	-28.202	105.03	189.14	538.25	56.186	312.87	-81.18	144.06	266.41	-124.12	195.82	155.14	516.09	45.488	450.05	397.93	104.92	427.99	398.63	113.61	325.45	-72.785	296.07	286.19	-107.35	329.93	229.54	-180.84	365.01	298.06	295.42	71.326	375.31	-208.34	352.6	266.89	304.64	47.505	409.64	-193.39	328.64	325.13	305.15	45.555	348.59	336.79	384.24	481.03	408.59	376.56	493.21	412.09	303.9	470.87	355.96	304.46	464.57	305.36	802.38	543.51	363.49	840.47	551.47	394.26	755.85	536.03	336.68	720.4	526.18	251.9	454.04	173.07	220.97	500.91	177.13	166.72	470.25	189.6	201.93	428.88	183.13	331.44	775.64	163.28	260.93	778.53	149.72	276.33	703.6	155.78	340.34	702.12	167.35
191	0.79432	586.47	1728.2	301.71	368.62	1518.6	555.88	345.22	1529.6	96.227	349.82	1069.7	527.1	332.57	998.46	176.28	125.98	1060.5	415.96	129.61	1060.3	282.45	112.58	1030.3	349.34	307.99	1123.1	136.03	318.12	1158.7	542	266.81	919.12	138.07	304.23	954.88	569.69	423.1	563.41	483.16	447.29	576.05	353.54	342.21	485.01	314.09	306.4	541.43	170.27	624.87	70.447	356.07	-14.952	106.72	185.95	538.32	56.226	312.86	-67.741	144.73	263.88	-111.36	197.47	153.21	516.11	45.509	450.06	398.26	105.11	428.02	398.91	113.85	325.49	-60.043	296.57	285	-94.856	330.8	228.83	-168.26	365.03	298.06	295.61	71.72	375.34	-195.82	352.79	266.84	304.74	47.862	409.65	-180.56	328.36	324.84	305.09	46.014	348.47	338.69	384.83	481.22	410.46	376.72	493.4	413.48	304.03	470.98	357.37	304.94	464.68	310.01	803.27	543.75	368.44	840.91	551.83	398.65	756.05	536.46	340.77	721.06	526.46	263.72	456.66	172.36	232.62	503.4	176.94	178.53	472.46	189.27	213.88	431.22	182.37	340.25	778.02	163.39	269.74	780.17	149.7	285.93	705.39	155.67	349.98	704.59	167.31
192	0.7985	593.2	1729	301.33	375.16	1520.4	555.68	351.05	1530.6	95.919	356.19	1070.7	527.57	338.87	1000.3	176.54	132.23	1062	416.5	135.71	1061.8	283.08	118.81	1031.8	349.85	313.7	1124.5	136.24	324.61	1160.4	542.21	273.47	920.94	138.29	310.15	955.81	569.94	426.05	563.52	483.44	450.47	575.92	353.84	354.12	486.85	313.53	317.82	544.23	170.13	625.02	70.25	356.06	-1.3734	108.14	182.99	538.39	56.258	312.86	-54.07	145.15	261.49	-98.317	198.7	151.33	516.14	45.522	450.08	398.58	105.31	428.06	399.19	114.1	325.54	-47.211	296.84	283.78	-82.261	331.35	228.04	-155.68	364.7	297.87	295.8	72.135	375.38	-183.25	352.57	266.59	304.85	48.239	409.65	-167.7	327.75	324.37	305.05	46.49	348.36	340.49	385.44	481.4	412.23	376.9	493.6	414.79	304.18	471.1	358.7	305.43	464.79	314.58	804.23	543.98	373.34	841.4	552.17	402.97	756.31	536.86	344.79	721.79	526.73	275.54	459.25	171.68	244.23	505.83	176.71	190.32	474.56	188.91	225.85	433.51	181.64	349.04	780.46	163.48	278.54	781.86	149.65	295.51	707.25	155.54	359.59	707.13	167.25
